<svg id="visual" viewBox="0 0 900 300" width="900" height="300" xmlns="http://www.w3.org/2000/svg" xmlns:xlink="http://www.w3.org/1999/xlink" version="1.1"><rect x="0" y="0" width="900" height="300" fill="#474A48"></rect><path d="M0 87L21.5 91.8C43 96.7 86 106.3 128.8 104.5C171.7 102.7 214.3 89.3 257.2 82.5C300 75.7 343 75.3 385.8 83.2C428.7 91 471.3 107 514.2 113.2C557 119.3 600 115.7 642.8 109.7C685.7 103.7 728.3 95.3 771.2 91.2C814 87 857 87 878.5 87L900 87L900 0L878.5 0C857 0 814 0 771.2 0C728.3 0 685.7 0 642.8 0C600 0 557 0 514.2 0C471.3 0 428.7 0 385.8 0C343 0 300 0 257.2 0C214.3 0 171.7 0 128.8 0C86 0 43 0 21.5 0L0 0Z" fill="#474a48"></path><path d="M0 71L21.5 74.7C43 78.3 86 85.7 128.8 84.2C171.7 82.7 214.3 72.3 257.2 70.8C300 69.3 343 76.7 385.8 78.8C428.7 81 471.3 78 514.2 80C557 82 600 89 642.8 89.2C685.7 89.3 728.3 82.7 771.2 83C814 83.3 857 90.7 878.5 94.3L900 98L900 0L878.5 0C857 0 814 0 771.2 0C728.3 0 685.7 0 642.8 0C600 0 557 0 514.2 0C471.3 0 428.7 0 385.8 0C343 0 300 0 257.2 0C214.3 0 171.7 0 128.8 0C86 0 43 0 21.5 0L0 0Z" fill="#55624a"></path><path d="M0 67L21.5 67.3C43 67.7 86 68.3 128.8 68.2C171.7 68 214.3 67 257.2 65.8C300 64.7 343 63.3 385.8 64.5C428.7 65.7 471.3 69.3 514.2 71C557 72.7 600 72.3 642.8 69.7C685.7 67 728.3 62 771.2 59.3C814 56.7 857 56.3 878.5 56.2L900 56L900 0L878.5 0C857 0 814 0 771.2 0C728.3 0 685.7 0 642.8 0C600 0 557 0 514.2 0C471.3 0 428.7 0 385.8 0C343 0 300 0 257.2 0C214.3 0 171.7 0 128.8 0C86 0 43 0 21.5 0L0 0Z" fill="#797542"></path><path d="M0 52L21.5 50.3C43 48.7 86 45.3 128.8 45.7C171.7 46 214.3 50 257.2 48.8C300 47.7 343 41.3 385.8 40.7C428.7 40 471.3 45 514.2 45.2C557 45.3 600 40.7 642.8 38.3C685.7 36 728.3 36 771.2 35.3C814 34.7 857 33.3 878.5 32.7L900 32L900 0L878.5 0C857 0 814 0 771.2 0C728.3 0 685.7 0 642.8 0C600 0 557 0 514.2 0C471.3 0 428.7 0 385.8 0C343 0 300 0 257.2 0C214.3 0 171.7 0 128.8 0C86 0 43 0 21.5 0L0 0Z" fill="#af813f"></path><path d="M0 20L21.5 20.3C43 20.7 86 21.3 128.8 20.3C171.7 19.3 214.3 16.7 257.2 16.5C300 16.3 343 18.7 385.8 20.7C428.7 22.7 471.3 24.3 514.2 26C557 27.7 600 29.3 642.8 30.7C685.7 32 728.3 33 771.2 33.8C814 34.7 857 35.3 878.5 35.7L900 36L900 0L878.5 0C857 0 814 0 771.2 0C728.3 0 685.7 0 642.8 0C600 0 557 0 514.2 0C471.3 0 428.7 0 385.8 0C343 0 300 0 257.2 0C214.3 0 171.7 0 128.8 0C86 0 43 0 21.5 0L0 0Z" fill="#ef8354"></path></svg>