<svg id="visual" viewBox="0 0 900 300" width="900" height="300" xmlns="http://www.w3.org/2000/svg" xmlns:xlink="http://www.w3.org/1999/xlink" version="1.1"><rect x="0" y="0" width="900" height="300" fill="#EFF2EF"></rect><path d="M0 106L21.5 105.8C43 105.7 86 105.3 128.8 103.2C171.7 101 214.3 97 257.2 98.5C300 100 343 107 385.8 110.8C428.7 114.7 471.3 115.3 514.2 112.7C557 110 600 104 642.8 102.5C685.7 101 728.3 104 771.2 108C814 112 857 117 878.5 119.5L900 122L900 0L878.5 0C857 0 814 0 771.2 0C728.3 0 685.7 0 642.8 0C600 0 557 0 514.2 0C471.3 0 428.7 0 385.8 0C343 0 300 0 257.2 0C214.3 0 171.7 0 128.8 0C86 0 43 0 21.5 0L0 0Z" fill="#eff2ef"></path><path d="M0 79L21.5 81.5C43 84 86 89 128.8 89.7C171.7 90.3 214.3 86.7 257.2 82.8C300 79 343 75 385.8 72C428.7 69 471.3 67 514.2 70.8C557 74.7 600 84.3 642.8 88C685.7 91.7 728.3 89.3 771.2 87.7C814 86 857 85 878.5 84.5L900 84L900 0L878.5 0C857 0 814 0 771.2 0C728.3 0 685.7 0 642.8 0C600 0 557 0 514.2 0C471.3 0 428.7 0 385.8 0C343 0 300 0 257.2 0C214.3 0 171.7 0 128.8 0C86 0 43 0 21.5 0L0 0Z" fill="#d8e0c2"></path><path d="M0 50L21.5 51.8C43 53.7 86 57.3 128.8 61.7C171.7 66 214.3 71 257.2 69.3C300 67.7 343 59.3 385.8 54.3C428.7 49.3 471.3 47.7 514.2 46.8C557 46 600 46 642.8 50.5C685.7 55 728.3 64 771.2 69C814 74 857 75 878.5 75.5L900 76L900 0L878.5 0C857 0 814 0 771.2 0C728.3 0 685.7 0 642.8 0C600 0 557 0 514.2 0C471.3 0 428.7 0 385.8 0C343 0 300 0 257.2 0C214.3 0 171.7 0 128.8 0C86 0 43 0 21.5 0L0 0Z" fill="#d6c891"></path><path d="M0 47L21.5 48.7C43 50.3 86 53.7 128.8 55C171.7 56.3 214.3 55.7 257.2 52.5C300 49.3 343 43.7 385.8 40.8C428.7 38 471.3 38 514.2 37.2C557 36.3 600 34.7 642.8 35.8C685.7 37 728.3 41 771.2 44.3C814 47.7 857 50.3 878.5 51.7L900 53L900 0L878.5 0C857 0 814 0 771.2 0C728.3 0 685.7 0 642.8 0C600 0 557 0 514.2 0C471.3 0 428.7 0 385.8 0C343 0 300 0 257.2 0C214.3 0 171.7 0 128.8 0C86 0 43 0 21.5 0L0 0Z" fill="#e1a968"></path><path d="M0 13L21.5 13.8C43 14.7 86 16.3 128.8 16.5C171.7 16.7 214.3 15.3 257.2 17.7C300 20 343 26 385.8 28C428.7 30 471.3 28 514.2 26.5C557 25 600 24 642.8 23C685.7 22 728.3 21 771.2 23.2C814 25.3 857 30.7 878.5 33.3L900 36L900 0L878.5 0C857 0 814 0 771.2 0C728.3 0 685.7 0 642.8 0C600 0 557 0 514.2 0C471.3 0 428.7 0 385.8 0C343 0 300 0 257.2 0C214.3 0 171.7 0 128.8 0C86 0 43 0 21.5 0L0 0Z" fill="#ef8354"></path></svg>